<svg width="183" height="80" viewBox="0 0 183 80" fill="none" xmlns="http://www.w3.org/2000/svg">
<g clip-path="url(#clip0_1095_65)">
<path d="M46.032 0H9.24526C4.13924 0 0 4.13924 0 9.24526V70.7547C0 75.8608 4.13924 80 9.24526 80H46.032C51.138 80 55.2773 75.8608 55.2773 70.7547V9.24526C55.2773 4.13924 51.138 0 46.032 0Z" fill="white"/>
<path d="M14.76 27.2085L40.4541 52.9025ZM40.7831 26.8596L14.4984 53.1444ZM8.81323 40.002H46.4722ZM27.6447 20.3063V59.6977Z" fill="#F6D072"/>
<path fill-rule="evenodd" clip-rule="evenodd" d="M40.89 39.9981C40.89 47.3166 34.9551 53.2475 27.6405 53.2475C20.326 53.2475 14.3911 47.3166 14.3911 39.9981C14.3911 32.6796 20.322 26.7487 27.6405 26.7487C34.959 26.7487 40.89 32.6796 40.89 39.9981Z" fill="#F6D072"/>
<path d="M109.464 0H72.6776C67.5716 0 63.4324 4.13924 63.4324 9.24526V70.7547C63.4324 75.8608 67.5716 80 72.6776 80H109.464C114.57 80 118.71 75.8608 118.71 70.7547V9.24526C118.71 4.13924 114.57 0 109.464 0Z" fill="white"/>
<path d="M89.0551 56.645C82.2361 56.645 76.0277 52.617 73.2446 46.3848C73.1336 46.139 73.1851 45.8496 73.3754 45.6553C73.5023 45.5245 73.6728 45.4571 73.8472 45.4571C73.9344 45.4571 74.0217 45.473 74.1049 45.5086C76.0872 46.3491 78.1884 46.7733 80.353 46.7733C89.1701 46.7733 96.3419 39.6015 96.3419 30.7884C96.3419 28.5207 95.8781 26.3323 94.9583 24.2786C94.8473 24.0328 94.8988 23.7434 95.0891 23.5492C95.216 23.4183 95.3864 23.351 95.5609 23.351C95.6481 23.351 95.7353 23.3668 95.8186 23.4025C102.225 26.1221 106.364 32.3782 106.364 39.3399C106.364 48.8825 98.6017 56.645 89.0591 56.645" fill="#F6D072"/>
<path d="M172.897 0H136.11C131.004 0 126.865 4.13924 126.865 9.24526V70.7547C126.865 75.8608 131.004 80 136.11 80H172.897C178.003 80 182.142 75.8608 182.142 70.7547V9.24526C182.142 4.13924 178.003 0 172.897 0Z" fill="white"/>
<path d="M154.505 24.5325C153.756 24.5325 153.086 25.0082 152.844 25.7179L149.807 34.5587L139.908 35.5855C139.19 35.6609 138.592 36.1644 138.397 36.8582C138.203 37.5519 138.453 38.2973 139.028 38.7334L145.906 43.9586L143.88 53.3386C143.734 54.0245 144.007 54.7302 144.574 55.1385C144.879 55.3566 145.236 55.4676 145.597 55.4676C145.91 55.4676 146.219 55.3843 146.501 55.2178L154.509 50.4247L162.517 55.2178C162.795 55.3843 163.108 55.4676 163.421 55.4676C163.782 55.4676 164.139 55.3566 164.444 55.1385C165.015 54.7302 165.285 54.0245 165.138 53.3386L163.112 43.9586L169.991 38.7334C170.565 38.2973 170.815 37.5559 170.621 36.8582C170.427 36.1644 169.828 35.6569 169.11 35.5855L159.215 34.5587L156.178 25.7179C155.936 25.0082 155.266 24.5325 154.517 24.5325" fill="#F6D072"/>
</g>
<defs>
<clipPath id="clip0_1095_65">
<rect width="182.142" height="80" fill="white"/>
</clipPath>
</defs>
</svg>
