<svg width="36" height="36" viewBox="0 0 36 36" fill="none" xmlns="http://www.w3.org/2000/svg">
<g clip-path="url(#clip0_1877_62)">
<path d="M36 18C36 27.941 27.941 36 18 36C8.059 36 0 27.941 0 18C0 8.059 8.059 0 18 0C27.941 0 36 8.059 36 18Z" fill="#E9E1FF"/>
<path d="M11.5 19C12.8807 19 14 17.433 14 15.5C14 13.567 12.8807 12 11.5 12C10.1193 12 9 13.567 9 15.5C9 17.433 10.1193 19 11.5 19Z" fill="#667289"/>
<path d="M24.5 19C25.8807 19 27 17.433 27 15.5C27 13.567 25.8807 12 24.5 12C23.1193 12 22 13.567 22 15.5C22 17.433 23.1193 19 24.5 19Z" fill="#667289"/>
<path d="M11.209 27.978L25.209 24.978C25.4629 24.9168 25.6827 24.7589 25.8218 24.538C25.9609 24.317 26.0081 24.0505 25.9535 23.7952C25.8988 23.5399 25.7466 23.3161 25.5292 23.1715C25.3119 23.0268 25.0466 22.9728 24.79 23.021L10.79 26.021C10.5362 26.0821 10.3163 26.24 10.1773 26.4609C10.0382 26.6819 9.99097 26.9484 10.0456 27.2037C10.1003 27.459 10.2525 27.6828 10.4699 27.8275C10.6872 27.9721 10.9524 28.0261 11.209 27.978Z" fill="#667289"/>
</g>
<defs>
<clipPath id="clip0_1877_62">
<rect width="36" height="36" fill="white"/>
</clipPath>
</defs>
</svg>
