<svg width="36" height="36" viewBox="0 0 36 36" fill="none" xmlns="http://www.w3.org/2000/svg">
<g clip-path="url(#clip0_1877_46)">
<path d="M17 36C26.3888 36 34 28.3888 34 19C34 9.61116 26.3888 2 17 2C7.61116 2 0 9.61116 0 19C0 28.3888 7.61116 36 17 36Z" fill="#FFDEF6"/>
<path d="M17.999 28.5C19.1036 28.5 19.999 27.3807 19.999 26C19.999 24.6193 19.1036 23.5 17.999 23.5C16.8945 23.5 15.999 24.6193 15.999 26C15.999 27.3807 16.8945 28.5 17.999 28.5Z" fill="#667289"/>
<path d="M8.111 21.3829C7.929 21.3829 7.744 21.3329 7.579 21.2289C7.112 20.9349 6.972 20.3179 7.266 19.8499C8.182 18.3969 10.967 15.9119 14.956 16.8879C15.492 17.0189 15.82 17.5609 15.689 18.0969C15.557 18.6329 15.013 18.9589 14.48 18.8299C10.876 17.9479 8.978 20.8859 8.959 20.9159C8.768 21.2179 8.443 21.3829 8.111 21.3829ZM20.084 17.6409C19.794 17.6409 19.508 17.5159 19.31 17.2749C18.96 16.8479 19.022 16.2169 19.45 15.8669C22.626 13.2629 26.212 14.3049 27.665 15.2209C28.132 15.5149 28.272 16.1329 27.977 16.5999C27.684 17.0649 27.069 17.2069 26.601 16.9149C26.463 16.8309 23.549 15.0919 20.717 17.4139C20.531 17.5669 20.307 17.6409 20.084 17.6409Z" fill="#667289"/>
<path d="M13.3461 31.273C13.2781 31.273 13.2091 31.264 13.1411 31.245C12.7431 31.132 12.5111 30.718 12.6241 30.319C13.0611 28.779 12.8821 27.29 12.1341 26.233C11.6371 25.531 10.9291 25.102 10.1911 25.055C9.77705 25.03 9.46305 24.673 9.48905 24.26C9.51505 23.847 9.87005 23.509 10.2841 23.559C11.4771 23.633 12.5971 24.292 13.3571 25.366C14.3681 26.795 14.6271 28.749 14.0661 30.727C13.9731 31.058 13.6721 31.273 13.3461 31.273ZM24.3831 28.212C24.2411 28.212 24.0981 28.172 23.9711 28.088C22.8041 27.318 22.1511 25.971 22.1791 24.393C22.2081 22.758 22.9881 21.24 24.1631 20.524C24.5161 20.308 24.9771 20.42 25.1931 20.775C25.4091 21.129 25.2971 21.589 24.9421 21.805C24.2071 22.253 23.6981 23.304 23.6781 24.419C23.6581 25.474 24.0671 26.355 24.7961 26.836C25.1421 27.064 25.2371 27.529 25.0091 27.875C24.8651 28.094 24.6271 28.212 24.3831 28.212Z" fill="#FFA1C7"/>
<path d="M17.179 2.71997C17.136 2.67097 17.069 2.64397 16.99 2.62897C16.99 2.62897 1.066 -0.394027 0.377 0.213973C-0.311 0.822973 0.74 16.998 0.74 16.998C0.745 17.079 0.763 17.148 0.807 17.197C1.411 17.881 5.565 15.193 10.086 11.196C14.608 7.19797 17.783 3.40397 17.179 2.71997Z" fill="#FF6B9B"/>
<path d="M0.349035 0.271003C0.334035 0.301003 0.321035 0.342003 0.311035 0.394003C0.470035 1.765 2.00604 13.046 2.96304 16.572C4.39904 15.769 5.85804 14.678 7.57204 13.319C6.11604 10.654 1.15804 0.146003 0.349035 0.271003Z" fill="#F7B4E5"/>
<path d="M29.902 29.229L19.329 27.926C18.199 27.824 16.212 27.814 16.314 26.024C16.407 24.401 18.354 24.651 19.793 24.864L30.431 26.638L29.902 29.229Z" fill="#55ACEE"/>
<path d="M30.4299 26.639L26.2079 25.915C25.7139 25.826 25.2739 26.562 25.2519 27.341C25.2269 28.207 25.4789 28.645 25.9779 28.747L30.1219 29.259L30.4299 26.639Z" fill="#A9DBFF"/>
<path d="M34.918 26.341L32.296 28.752L27.609 23.655L30.231 21.244C31.592 19.992 33.73 20.082 34.982 21.443L35.117 21.59C36.368 22.952 36.279 25.089 34.918 26.341Z" fill="#55ACEE"/>
<path d="M32.2944 28.7534C33.4205 27.7179 33.2844 25.7376 31.9902 24.3301C30.6961 22.9226 28.7341 22.621 27.6079 23.6564C26.4818 24.6919 26.6179 26.6722 27.9121 28.0797C29.2062 29.4872 31.1682 29.7888 32.2944 28.7534Z" fill="#A9DBFF"/>
<path d="M31.357 27.7339C31.9201 27.2162 31.7472 26.1119 30.9708 25.2675C30.1944 24.4231 29.1085 24.1583 28.5454 24.676C27.9823 25.1937 28.1553 26.2979 28.9317 27.1424C29.7081 27.9868 30.7939 28.2516 31.357 27.7339Z" fill="#667289"/>
<path d="M2.5 35C3.32843 35 4 34.3284 4 33.5C4 32.6716 3.32843 32 2.5 32C1.67157 32 1 32.6716 1 33.5C1 34.3284 1.67157 35 2.5 35Z" fill="#55ACEE"/>
<path d="M29 4C30.1046 4 31 3.10457 31 2C31 0.89543 30.1046 0 29 0C27.8954 0 27 0.89543 27 2C27 3.10457 27.8954 4 29 4Z" fill="#55ACEE"/>
<path d="M4.86399 29.246L2.52599 23.63L0.411987 29.675L4.86399 29.246ZM26 5L22 6L23 2L26 5Z" fill="#F7B4E5"/>
<path d="M31.999 13L36 7.999L33 6L31.999 13Z" fill="#96BE5E"/>
</g>
<defs>
<clipPath id="clip0_1877_46">
<rect width="36" height="36" fill="white"/>
</clipPath>
</defs>
</svg>
