<svg width="36" height="36" viewBox="0 0 36 36" fill="none" xmlns="http://www.w3.org/2000/svg">
<g clip-path="url(#clip0_1877_67)">
<path d="M36 18C36 27.941 27.941 36 18 36C8.06 36 0 27.941 0 18C0 8.06 8.06 0 18 0C27.941 0 36 8.06 36 18Z" fill="#FFEECC"/>
<path d="M29 27C31.7614 27 34 24.7614 34 22C34 19.2386 31.7614 17 29 17C26.2386 17 24 19.2386 24 22C24 24.7614 26.2386 27 29 27Z" fill="#E698CD"/>
<path d="M7 27C9.76142 27 12 24.7614 12 22C12 19.2386 9.76142 17 7 17C4.23858 17 2 19.2386 2 22C2 24.7614 4.23858 27 7 27Z" fill="#E698CD"/>
<path d="M29 14.0001C28.744 14.0001 28.488 13.9021 28.293 13.7071C25.716 11.1321 21.238 11.9711 21.194 11.9811C20.646 12.0901 20.127 11.7341 20.02 11.1941C19.913 10.6531 20.262 10.1281 20.803 10.0201C21.03 9.97406 26.366 8.95506 29.706 12.2931C30.097 12.6841 30.097 13.3161 29.706 13.7071C29.512 13.9021 29.256 14.0001 29 14.0001ZM7.00001 14.0001C6.74401 14.0001 6.48801 13.9021 6.29301 13.7071C5.90201 13.3161 5.90201 12.6841 6.29301 12.2931C9.63301 8.95206 14.971 9.97506 15.196 10.0201C15.738 10.1281 16.089 10.6551 15.98 11.1971C15.872 11.7371 15.347 12.0891 14.805 11.9821C14.736 11.9671 10.276 11.1391 7.70701 13.7081C7.51201 13.9021 7.25601 14.0001 7.00001 14.0001ZM26 19.0001C25.744 19.0001 25.488 18.9021 25.293 18.7071C23.989 17.4021 21.203 17.7331 20.241 17.9711C19.701 18.1031 19.164 17.7761 19.03 17.2411C18.897 16.7051 19.222 16.1641 19.758 16.0301C19.944 15.9841 24.333 14.9191 26.707 17.2931C27.098 17.6841 27.098 18.3161 26.707 18.7071C26.512 18.9021 26.256 19.0001 26 19.0001ZM10 19.0001C9.74401 19.0001 9.48801 18.9021 9.29301 18.7071C8.90201 18.3161 8.90201 17.6841 9.29301 17.2931C11.666 14.9201 16.057 15.9841 16.243 16.0301C16.778 16.1641 17.103 16.7051 16.97 17.2411C16.838 17.7771 16.297 18.1041 15.76 17.9711C14.796 17.7341 12.011 17.4041 10.708 18.7071C10.512 18.9021 10.256 19.0001 10 19.0001Z" fill="#667289"/>
<path d="M13 25C13 25 14 29 18 29C22 29 23 25 23 25C23 25 22 26 18 26C14 26 13 25 13 25Z" fill="#667289"/>
<path d="M18 29.4999C13.66 29.4999 12.526 25.1649 12.515 25.1209C12.46 24.9029 12.558 24.6759 12.753 24.5639C12.944 24.4579 13.183 24.4849 13.344 24.6359C13.383 24.6699 14.41 25.4999 18 25.4999C21.644 25.4999 22.647 24.6449 22.657 24.6369C22.822 24.4909 23.066 24.4659 23.254 24.5769C23.442 24.6899 23.538 24.9079 23.485 25.1209C23.474 25.1649 22.34 29.4999 18 29.4999ZM13.949 26.0079C14.526 27.0719 15.724 28.4999 18 28.4999C20.276 28.4999 21.475 27.0719 22.051 26.0079C21.231 26.2659 19.95 26.4999 18 26.4999C16.05 26.4999 14.769 26.2659 13.949 26.0079Z" fill="#667289"/>
</g>
<defs>
<clipPath id="clip0_1877_67">
<rect width="36" height="36" fill="white"/>
</clipPath>
</defs>
</svg>
