<svg width="24" height="24" viewBox="0 0 24 24" fill="none" xmlns="http://www.w3.org/2000/svg">
<g clip-path="url(#clip0_2406_818)">
<path fill-rule="evenodd" clip-rule="evenodd" d="M9.553 5.44402L10.0918 3.78566C10.6921 1.93811 13.3059 1.93811 13.9062 3.78566L14.4451 5.44402H16.1888C18.1314 5.44402 18.9391 7.92987 17.3675 9.07172L15.9568 10.0966L16.4956 11.755C17.0959 13.6025 14.9813 15.1389 13.4097 13.997L11.999 12.9721L10.5883 13.997C9.01673 15.1389 6.90213 13.6025 7.50243 11.755L8.04127 10.0966L6.63058 9.07172C5.05897 7.92987 5.86667 5.44402 7.8093 5.44402H9.553ZM7.8093 3.04402C9.12804 -1.01467 14.87 -1.01467 16.1888 3.04402C20.4563 3.04402 22.2307 8.50495 18.7781 11.0134C20.0969 15.072 15.4516 18.4471 11.999 15.9387C8.5465 18.4471 3.90115 15.072 5.2199 11.0134C1.76737 8.50495 3.54174 3.04402 7.8093 3.04402ZM11.1897 21.8408C10.1107 21.8408 9.23592 20.9661 9.23592 19.887C9.23592 18.808 10.1107 17.9332 11.1897 17.9332C12.2688 17.9332 13.1436 18.808 13.1436 19.887C13.1436 20.9661 12.2688 21.8408 11.1897 21.8408ZM5.3379 22.5749C5.3379 23.3618 5.97585 23.9998 6.7628 23.9998C7.54975 23.9998 8.1877 23.3618 8.1877 22.5749C8.1877 21.7879 7.54975 21.15 6.7628 21.15C5.97585 21.15 5.3379 21.7879 5.3379 22.5749Z" fill="#667289"/>
</g>
<defs>
<clipPath id="clip0_2406_818">
<rect width="24" height="24" fill="white"/>
</clipPath>
</defs>
</svg>
