<svg width="121" height="120" viewBox="0 0 121 120" fill="none" xmlns="http://www.w3.org/2000/svg">
<path fill-rule="evenodd" clip-rule="evenodd" d="M40.7842 0C18.6927 0 0.78418 17.9087 0.78418 40V80C0.78418 102.091 18.6927 120 40.7842 120H80.7842C102.876 120 120.784 102.091 120.784 80V40C120.784 17.9087 102.876 0 80.7842 0H40.7842ZM78.124 70.7292L79.8606 82.2534C80.4625 86.2405 76.2339 89.1848 72.7069 87.2373L62.5016 81.6094C61.1023 80.835 59.4078 80.8005 57.9778 81.5173L47.554 86.7312C43.9504 88.533 39.8406 85.4202 40.6035 81.4636L42.8041 70.0164C43.1069 68.4446 42.6162 66.8228 41.493 65.6841L33.3118 57.3804C30.4826 54.509 32.1732 49.6401 36.1718 49.1418L47.738 47.7004C49.3252 47.5049 50.7169 46.5388 51.4529 45.1165L56.8201 34.7693C58.6756 31.1924 63.8281 31.2959 65.5379 34.9456L70.4872 45.4998C71.1658 46.949 72.5153 47.9724 74.0947 48.2332L85.592 50.1423C89.5675 50.8018 91.0588 55.7358 88.1184 58.4883L79.6076 66.4548C78.4421 67.5474 77.8862 69.146 78.124 70.7292Z" fill="#667289" fill-opacity="0.25"/>
</svg>
