<svg width="229" height="220" viewBox="0 0 229 220" fill="none" xmlns="http://www.w3.org/2000/svg">
<path d="M39.0126 197.62L45.862 152.17C46.7994 145.925 44.607 139.62 40.0105 135.311L6.44413 103.892C-5.15291 93.0355 0.728773 73.576 16.4082 70.9754L61.7531 63.4456C67.9825 62.4175 73.3048 58.3804 75.981 52.6651L95.5009 11.0397C102.244 -3.35452 122.566 -3.76276 129.884 10.3442L151.052 51.1531C153.955 56.7626 159.443 60.5728 165.703 61.344L211.32 67.0291C227.09 68.9947 233.758 88.1971 222.6 99.522L190.334 132.272C185.903 136.763 183.968 143.158 185.163 149.357L193.841 194.506C196.85 210.11 180.642 222.387 166.429 215.281L125.318 194.717C119.678 191.89 112.995 192.026 107.476 195.08L67.2265 217.276C53.3161 224.957 36.6388 213.345 39.0126 197.62Z" fill="#667289"/>
</svg>
