<svg width="36" height="36" viewBox="0 0 36 36" fill="none" xmlns="http://www.w3.org/2000/svg">
<path d="M18 34.0179C27.3888 34.0179 35 26.4068 35 17.0179C35 7.6291 27.3888 0.0179443 18 0.0179443C8.61116 0.0179443 1 7.6291 1 17.0179C1 26.4068 8.61116 34.0179 18 34.0179Z" fill="#C0EFFF"/>
<path d="M14.524 21.036C14.379 20.92 14.266 20.762 14.212 20.572C14.078 20.112 14.342 19.654 14.802 19.551C19.33 18.53 22.379 20.914 22.508 21.016C22.892 21.322 22.967 21.861 22.681 22.221C22.395 22.579 21.853 22.622 21.47 22.318C21.36 22.234 18.947 20.395 15.288 21.22C15.014 21.281 14.734 21.204 14.524 21.036Z" fill="#667289"/>
<path d="M13.119 13.8299C14.2926 13.8299 15.244 12.6408 15.244 11.1739C15.244 9.70708 14.2926 8.51794 13.119 8.51794C11.9454 8.51794 10.994 9.70708 10.994 11.1739C10.994 12.6408 11.9454 13.8299 13.119 13.8299Z" fill="#667289"/>
<path d="M24.375 14.892C25.5486 14.892 26.5 13.7028 26.5 12.236C26.5 10.7691 25.5486 9.57996 24.375 9.57996C23.2014 9.57996 22.25 10.7691 22.25 12.236C22.25 13.7028 23.2014 14.892 24.375 14.892Z" fill="#667289"/>
<path d="M17.276 35.1491C17.276 35.1491 18.541 34.7381 18.705 33.7971C18.878 32.8251 18.081 32.6301 18.081 32.6301C18.081 32.6301 19.122 32.4221 19.253 31.2541C19.376 30.1531 18.392 29.8911 18.392 29.8911C18.392 29.8911 19.362 29.4911 19.408 28.3521C19.446 27.3931 18.413 26.9241 18.413 26.9241C18.413 26.9241 23.451 25.7031 23.969 25.5831C24.485 25.4631 25.289 24.9681 25.038 23.8891C24.789 22.8091 23.834 22.7711 23.341 22.8861C22.847 23.0011 16.597 24.4521 14.441 24.9541L13.002 25.2881C12.462 25.4151 12.217 25.1781 12.598 24.7761C13.106 24.2401 13.431 23.6471 13.544 22.6631C13.663 21.6281 13.312 20.3501 13.111 19.8541C12.737 18.9331 12.106 18.2051 11.377 17.9551C10.24 17.5651 9.43201 18.2761 9.83501 19.5161C10.439 21.3701 10.043 22.8911 9.00201 23.8091C6.55301 25.9661 5.41401 27.5041 6.17201 30.7821C7.00001 34.3571 10.549 36.6581 14.124 35.8301L17.276 35.1491Z" fill="#75D7DA"/>
<path d="M9.29605 6.35094C9.13205 6.26294 8.99305 6.12694 8.90505 5.95194C8.68905 5.52394 8.86506 5.02494 9.29806 4.83994C13.5641 3.00894 16.9971 4.79694 17.1411 4.87394C17.5741 5.10494 17.7491 5.62094 17.5321 6.02794C17.3161 6.43294 16.7921 6.57394 16.3591 6.34594C16.2361 6.28294 13.5271 4.91394 10.0811 6.39294C9.82406 6.50194 9.53405 6.47794 9.29605 6.35094ZM21.4311 10.1009C21.2751 10.0029 21.1451 9.85794 21.0691 9.67694C20.8821 9.23494 21.0921 8.74994 21.5371 8.59294C25.9181 7.05694 29.2221 9.07294 29.3601 9.15994C29.7751 9.41994 29.9151 9.94694 29.6721 10.3379C29.4301 10.7279 28.8961 10.8329 28.4811 10.5759C28.3611 10.5039 25.7541 8.95494 22.2141 10.1969C21.9481 10.2879 21.6611 10.2429 21.4311 10.1009Z" fill="#667289"/>
</svg>
