<svg width="30" height="29" viewBox="0 0 30 29" fill="none" xmlns="http://www.w3.org/2000/svg">
<path fill-rule="evenodd" clip-rule="evenodd" d="M24.1349 6.85505C23.8484 6.52217 23.3726 6.40496 22.9452 6.53624L20.2405 7.36609C19.5898 6.88318 18.8712 6.47998 18.1039 6.17523L17.497 3.49814C17.3998 3.0715 17.0599 2.73393 16.6132 2.66361C15.9431 2.55577 15.2536 2.49951 14.5495 2.49951C13.8454 2.49951 13.1558 2.55577 12.4857 2.66829C12.039 2.73862 11.6991 3.07619 11.6019 3.50283L10.995 6.17992C10.2277 6.48467 9.50907 6.88787 8.85839 7.37078L6.15367 6.54093C5.72636 6.40965 5.25048 6.52217 4.96399 6.85974C4.57066 7.3192 4.21133 7.8068 3.89084 8.32252L3.66262 8.70229C3.36641 9.21801 3.10905 9.75249 2.89539 10.3104C2.74001 10.7183 2.87111 11.1731 3.20617 11.4638L5.30875 13.311C5.25534 13.7001 5.22621 14.0987 5.22621 14.5019C5.22621 14.9051 5.25534 15.3036 5.30875 15.6974L3.20617 17.5446C2.87111 17.8353 2.74001 18.2901 2.89539 18.698C3.10905 19.2559 3.36641 19.7904 3.66262 20.3061L3.89084 20.6859C4.21133 21.2016 4.57066 21.6892 4.96399 22.1487C5.25048 22.4815 5.72636 22.5987 6.15367 22.4675L8.85353 21.6329C9.50422 22.1158 10.2229 22.519 10.9901 22.8238L11.5971 25.5009C11.6942 25.9275 12.0341 26.2651 12.4809 26.3354C13.151 26.4433 13.8405 26.4995 14.5446 26.4995C15.2487 26.4995 15.9382 26.4433 16.6083 26.3354C17.0551 26.2651 17.395 25.9275 17.4921 25.5009L18.0991 22.8238C18.8663 22.519 19.585 22.1158 20.2357 21.6329L22.9404 22.4628C23.3677 22.5941 23.8436 22.4815 24.1301 22.144C24.5234 21.6845 24.8827 21.1969 25.2032 20.6812L25.4314 20.3014C25.7276 19.7857 25.985 19.2512 26.1987 18.6933C26.3541 18.2854 26.2229 17.8306 25.8879 17.5399L23.7853 15.6927C23.8387 15.3036 23.8679 14.9051 23.8679 14.5019C23.8679 14.0987 23.8387 13.7001 23.7853 13.311L25.8879 11.4638C26.2229 11.1731 26.3541 10.7183 26.1987 10.3104L26.2035 10.3057C25.9899 9.7478 25.7325 9.21332 25.4363 8.6976L25.2081 8.31783C24.8876 7.80211 24.5282 7.31451 24.1349 6.85505ZM28.6899 11.3801L29.1295 10.9558L28.5382 9.41166C28.2752 8.72484 27.9607 8.0733 27.6042 7.45248L27.5918 7.43103L27.3413 7.01411L27.3315 6.9983C26.9415 6.37082 26.5066 5.78121 26.0341 5.22926L26.0298 5.22423C25.032 4.0649 23.4914 3.75349 22.2119 4.1462L20.6289 4.63189C20.5113 4.5633 20.3924 4.49663 20.2721 4.43194L19.9346 2.94326C19.622 1.56977 18.5102 0.433708 17.0073 0.19486C16.2071 0.0662646 15.3858 -0.000488281 14.5495 -0.000488281C13.7157 -0.000488281 12.891 0.065861 12.0821 0.201076C10.584 0.443205 9.47629 1.57736 9.1643 2.94795L8.82677 4.43663C8.70655 4.50132 8.5876 4.56799 8.46997 4.63658L6.88784 4.15115C6.88812 4.15124 6.88755 4.15107 6.88784 4.15115C5.62857 3.76464 4.07361 4.04965 3.06218 5.23704C2.59071 5.7881 2.15665 6.37668 1.76745 7.00298L1.75762 7.0188L1.50706 7.43572L1.49474 7.45717C1.13818 8.07799 0.823752 8.72952 0.560727 9.41634L0.559173 9.42042C5.65052e-05 10.8881 0.506413 12.426 1.56029 13.3455L2.727 14.3706C2.72647 14.4142 2.72621 14.458 2.72621 14.5019C2.72621 14.5473 2.72649 14.5926 2.72705 14.6378L1.56018 15.6629C0.506378 16.5825 7.55787e-05 18.1203 0.55917 19.588L0.560731 19.5921C0.823752 20.2789 1.13818 20.9304 1.49474 21.5512L1.50706 21.5727L1.75762 21.9896L1.76745 22.0054C2.15738 22.6329 2.59233 23.2225 3.06482 23.7744L3.06915 23.7795C4.06716 24.9391 5.60822 25.2504 6.88784 24.8572L8.468 24.3688C8.58469 24.4368 8.70268 24.5029 8.82192 24.5671L9.15945 26.0558C9.47211 27.4293 10.5839 28.5654 12.0869 28.8042C12.887 28.9328 13.7083 28.9995 14.5446 28.9995C15.3809 28.9995 16.2022 28.9328 17.0023 28.8042C18.5053 28.5654 19.6171 27.4293 19.9298 26.0558L20.2673 24.5671C20.3875 24.5024 20.5065 24.4357 20.6241 24.3671L22.2062 24.8526C22.2059 24.8525 22.2065 24.8526 22.2062 24.8526C23.4644 25.2387 25.0177 24.9546 26.0292 23.7698C26.5017 23.2178 26.9367 22.6282 27.3266 22.0007L27.3364 21.9849L27.587 21.568L27.5993 21.5465C27.9559 20.9257 28.2703 20.2742 28.5333 19.5874L28.5349 19.5833C29.094 18.1157 28.5877 16.5779 27.5339 15.6583L26.3671 14.6331C26.3676 14.5895 26.3679 14.5457 26.3679 14.5019C26.3679 14.458 26.3676 14.4142 26.3671 14.3706L27.5339 13.3454C28.1139 12.8393 28.528 12.146 28.6899 11.3801ZM14.5495 15.7526C14.9445 15.7526 15.3064 15.6003 15.5599 15.3555C15.8104 15.1137 15.9341 14.8047 15.9341 14.5019C15.9341 14.199 15.8104 13.8901 15.5599 13.6482C15.3064 13.4034 14.9445 13.2511 14.5495 13.2511C14.1545 13.2511 13.7925 13.4034 13.5391 13.6482C13.2886 13.8901 13.1648 14.199 13.1648 14.5019C13.1648 14.8047 13.2886 15.1137 13.5391 15.3555C13.7925 15.6003 14.1545 15.7526 14.5495 15.7526ZM17.2963 17.154C16.5678 17.8574 15.5797 18.2526 14.5495 18.2526C13.5192 18.2526 12.5311 17.8574 11.8026 17.154C11.074 16.4506 10.6648 15.4966 10.6648 14.5019C10.6648 13.5071 11.074 12.5531 11.8026 11.8497C12.5311 11.1463 13.5192 10.7511 14.5495 10.7511C15.5797 10.7511 16.5678 11.1463 17.2963 11.8497C18.0249 12.5531 18.4341 13.5071 18.4341 14.5019C18.4341 15.4966 18.0249 16.4506 17.2963 17.154Z" fill="#667289"/>
<circle cx="14.7291" cy="14.4996" r="4.2061" fill="white"/>
<circle cx="14.7291" cy="14.4995" r="2.375" fill="#667289"/>
</svg>
